<svg width="30" height="34" viewBox="0 0 30 34" fill="none" xmlns="http://www.w3.org/2000/svg">
<path d="M21.3884 21.2905L15 27.6253L8.61161 21.2905C3.82366 21.4963 0 25.3809 0 30.1752V30.8127C0 32.5723 1.43973 34 3.21429 34H26.7857C28.5603 34 30 32.5723 30 30.8127V30.1752C30 25.3809 26.1763 21.4963 21.3884 21.2905ZM0.910714 5.30062L1.33929 5.40022V9.27816C0.870536 9.55705 0.535714 10.0418 0.535714 10.6261C0.535714 11.1839 0.84375 11.6487 1.27902 11.9343L0.234375 16.0712C0.120536 16.5294 0.375 17.0008 0.743304 17.0008H3.54241C3.91071 17.0008 4.16518 16.5294 4.05134 16.0712L3.0067 11.9343C3.44196 11.6487 3.75 11.1839 3.75 10.6261C3.75 10.0418 3.41518 9.55705 2.94643 9.27816V5.78536L7.36607 6.84117C6.79018 7.9833 6.42857 9.25824 6.42857 10.6261C6.42857 15.3208 10.2656 19.1257 15 19.1257C19.7344 19.1257 23.5714 15.3208 23.5714 10.6261C23.5714 9.25824 23.2165 7.9833 22.6339 6.84117L29.0826 5.30062C30.3013 5.00845 30.3013 3.5011 29.0826 3.20893L16.3326 0.154387C15.4621 -0.0514623 14.5446 -0.0514623 13.6741 0.154387L0.910714 3.20228C-0.301339 3.49446 -0.301339 5.00845 0.910714 5.30062Z" fill="#9A9A9A"/>
</svg>
