<svg width="22" height="22" viewBox="0 0 22 22" fill="none" xmlns="http://www.w3.org/2000/svg">
<path d="M21.2727 7.50893H13.1536L10.6364 0.0634766L8.11909 7.50893H0L6.55909 12.118L4.04182 19.5635L10.6364 14.9544L17.1955 19.5635L14.6782 12.118L21.2727 7.50893Z" fill="#FFCE31"/>
<path d="M15.8127 6.58674L17.2309 2.54492L13.5082 5.09765L14.04 6.58674H15.8127Z" fill="#FFDF85"/>
<path d="M9.32446 17.1168L10.7781 21.3713L12.2317 17.1168L10.7781 16.124L9.32446 17.1168Z" fill="#FFDF85"/>
<path d="M17.4082 11.5508L16.0609 12.4726L16.6282 14.1744H21.2018L17.4082 11.5508Z" fill="#FFDF85"/>
<path d="M8.04817 5.09765L4.32544 2.54492L5.74362 6.58674H7.51635L8.04817 5.09765Z" fill="#FFDF85"/>
<path d="M4.14813 11.5508L0.354492 14.1744H4.92813L5.4954 12.4726L4.14813 11.5508Z" fill="#FFDF85"/>
</svg>
